<?xml version="1.0" encoding="utf-8"?>
<!-- Generator: Adobe Illustrator 26.1.0, SVG Export Plug-In . SVG Version: 6.00 Build 0)  -->
<svg version="1.1" id="Layer_1" xmlns="http://www.w3.org/2000/svg" xmlns:xlink="http://www.w3.org/1999/xlink" x="0px" y="0px"
	 viewBox="0 0 610 360" style="enable-background:new 0 0 610 360;" xml:space="preserve">
<style type="text/css">
	.st0{fill:#FFB601;}
	.st1{fill:#FFFFFF;}
</style>
<g>
	<path class="st0" d="M387.7,5.4c-18,0-32.6,14.6-32.6,32.6c0,18,14.6,32.6,32.6,32.6c18,0,32.6-14.6,32.6-32.6
		c0-8.7-3.4-17-9.6-23.1C404.6,8.7,396.3,5.3,387.7,5.4z"/>
	<polygon class="st1" points="289.2,135.2 362.7,135.2 362.7,354.6 419.5,354.6 419.5,89.2 267.5,89.2 	"/>
	<polygon class="st1" points="160.5,89.2 8.5,89.2 8.5,354.6 65.3,354.6 65.3,135.2 138.8,135.2 	"/>
	<polygon class="st1" points="449.5,89.2 471.2,135.2 544.7,135.2 544.7,310 471.2,310 450.2,354.6 601.5,354.6 601.5,89.2 	"/>
	<polygon class="st1" points="200.6,89.2 72.6,354.6 236.3,354.6 218.9,309.4 157.6,309.4 215.5,191 291.2,354.6 355.4,354.6 
		232.8,89.2 	"/>
</g>
</svg>
